Coordinates
version=1
nRows=19
nColumns=36
inDegrees=yes

Units are S.I. units (second, meters, Newtons, ...)
If the header above contains a line with 'inDegrees', this indicates whether rotational values are in degrees (yes) or radians (no).

endheader
time	pelvis_tilt	pelvis_list	pelvis_rotation	pelvis_tx	pelvis_ty	pelvis_tz	hip_flexion_r	hip_adduction_r	hip_rotation_r	knee_angle_r	knee_angle_r_beta	ankle_angle_r	subtalar_angle_r	mtp_angle_r	hip_flexion_l	hip_adduction_l	hip_rotation_l	knee_angle_l	knee_angle_l_beta	ankle_angle_l	subtalar_angle_l	mtp_angle_l	lumbar_extension	lumbar_bending	lumbar_rotation	arm_flex_r	arm_add_r	arm_rot_r	elbow_flex_r	pro_sup_r	arm_flex_l	arm_add_l	arm_rot_l	elbow_flex_l	pro_sup_l
      3.48333330	      7.00689589	     -5.95755206	     11.27219410	      0.39383757	      0.81611943	     -0.05659802	     44.34945641	     -2.48138517	     -6.70039770	      7.45763468	      0.13016028	    -10.48269394	     -8.08976247	     -7.49999979	     24.64139831	      7.38739654	      7.21868553	     53.96788116	      0.94191722	     18.79268386	    -27.64286528	     -7.49999979	    -25.71167374	      3.17368808	      6.05543760	     63.35242984	      9.02821892	     76.58264204	    120.91325679	     90.76802844	     57.93913572	      5.25793000	     71.67667999	    111.55739545	     75.63316999
      3.50000000	      7.08907900	     -6.09035150	     11.66918063	      0.40140247	      0.82462375	     -0.05356250	     43.36659045	     -2.41773547	     -6.93725203	      7.70090085	      0.13440608	     -9.87221327	     -7.86979481	     -7.49999980	     23.15583205	      6.83349376	      7.55632876	     51.76719854	      0.90350806	     17.59928320	    -27.92368307	     -7.49999980	    -25.10923813	      3.20050011	      5.85067247	     62.18856461	      8.91039973	     75.76875681	    120.95179252	     90.89874308	     56.81551556	      5.43391447	     70.57862918	    110.92414029	     75.67292497
      3.51666670	      6.94043371	     -6.48220427	     11.69202675	      0.40058346	      0.83202776	     -0.05400471	     42.67061925	     -2.03327663	     -7.29121918	      7.99061105	      0.13946247	     -9.48358383	     -7.61395371	     -7.49999980	     22.17189591	      6.19482213	      7.75160678	     49.58014953	      0.86533685	     16.13275985	    -27.88201701	     -7.49999980	    -24.43384256	      3.49836928	      5.86995180	     61.70839677	      9.08985650	     75.32419358	    120.95785581	     91.01113572	     55.39936467	      5.38749524	     70.13278639	    110.26851404	     75.69370811
      3.53333330	      6.68877711	     -6.79371955	     11.80575449	      0.40150120	      0.83236465	     -0.05365394	     42.39868144	     -1.79474017	     -7.44993824	      8.41500336	      0.14686952	     -8.89543550	     -7.92764938	     -7.49999980	     21.50726897	      5.57198778	      7.71911022	     47.83100217	      0.83480847	     15.62458208	    -27.56979554	     -7.49999980	    -23.59116152	      3.87101694	      5.83084035	     61.53294187	      9.13910183	     75.32971578	    121.14400364	     91.01171471	     54.69801128	      5.16232966	     70.02417364	    109.94635395	     75.67268520
      3.55000000	      6.23733690	     -6.98570584	     11.55486154	      0.39534184	      0.84109908	     -0.05720544	     42.28103559	     -1.61779291	     -7.95108376	      8.83966316	      0.15428123	     -8.65213279	     -6.88695992	     -7.49999980	     21.10586447	      5.27603570	      7.33097230	     45.68069855	      0.79727859	     14.36070671	    -27.12132634	     -7.49999980	    -22.85152231	      4.11641902	      6.00811683	     61.71066206	      9.16354538	     75.46012682	    121.27698793	     90.84132982	     53.93943601	      5.08258031	     69.11169899	    109.82655321	     75.55179440
      3.56666670	      6.02639059	     -7.01777186	     11.59499739	      0.39681315	      0.84350297	     -0.05701150	     42.26729489	     -1.62041055	     -8.09349846	      9.32484457	      0.16274924	     -8.09013905	     -6.21538201	     -7.49999980	     20.40280647	      4.82851295	      6.52788915	     43.72899048	      0.76321486	     14.06811276	    -25.71542479	     -7.49999980	    -22.41775052	      4.12723089	      5.70582996	     61.85876656	      9.26031660	     75.69616458	    121.84121904	     90.19879554	     54.30978925	      4.97579461	     68.56396117	    110.23877051	     75.26591616
      3.58333330	      5.45044218	     -6.92028151	     11.58750553	      0.39606588	      0.84585814	     -0.05761479	     42.40185062	     -1.65880632	     -8.02852866	      9.56231839	      0.16689394	     -7.57044106	     -5.36169240	     -7.49999981	     19.76471615	      4.57729246	      5.66012731	     41.21978910	      0.71942104	     13.83083697	    -24.46284505	     -7.49999981	    -21.60836525	      4.15911693	      5.32488023	     61.73237447	      9.68313906	     75.39260359	    122.10622871	     90.21327843	     54.77754722	      5.08331191	     67.37436321	    110.07143205	     75.18931537
      3.60000000	      4.96589257	     -7.03242891	     11.46927226	      0.39732980	      0.84922869	     -0.05786912	     42.51440546	     -1.54627455	     -8.21995729	      9.84030331	      0.17174569	     -7.52181137	     -4.46537543	     -7.49999981	     18.67727994	      4.18329213	      5.37225067	     38.67608498	      0.67502502	     14.60183505	    -22.36477597	     -7.49999981	    -20.25312933	      4.29730640	      5.13063494	     61.96555222	      9.91091903	     74.61226525	    121.91741471	     88.88856212	     54.65328610	      5.14820232	     66.08450816	    109.26793238	     74.26713222
      3.61666670	      4.43166953	     -7.15120841	     11.49137387	      0.39243831	      0.85928122	     -0.05661458	     42.71072343	     -1.41541721	     -8.69365561	      9.97718128	      0.17413466	     -7.91166090	     -4.17148009	     -7.49999981	     17.72913630	      3.78344437	      5.19412205	     35.73268500	      0.62365300	     14.03466386	    -20.46083166	     -7.49999981	    -19.52216946	      4.47987036	      4.46102688	     62.18860377	     10.38120927	     74.20571018	    121.55055018	     87.95208162	     54.03698364	      4.69895504	     65.36899896	    109.08806632	     73.82683104
      3.63333330	      4.07034007	     -7.18185285	     11.80913320	      0.39382546	      0.85961033	     -0.05665229	     42.89453893	     -1.54594486	     -8.81759137	     10.28607868	      0.17952594	     -8.16879337	     -4.10620601	     -7.49999982	     16.52156629	      3.67071081	      5.80050613	     32.60381321	      0.56904389	     13.21392077	    -19.77769861	     -7.49999982	    -18.69322728	      4.48734964	      3.75995041	     62.37890906	     10.65911747	     74.63548626	    121.66205859	     87.68666916	     53.39269475	      4.27518098	     65.30478551	    109.20368207	     73.53711385
      3.65000000	      3.81194176	     -7.57740278	     11.97452006	      0.39274417	      0.86729408	     -0.05711932	     42.68870442	     -1.20271637	     -9.36027729	     10.81044319	      0.18867783	     -8.46783078	     -4.47162941	     -7.49999982	     15.67270410	      3.02470110	      6.07889180	     30.40970594	      0.53074949	     12.24330883	    -18.93300339	     -7.49999982	    -17.97950334	      4.68691582	      3.39292344	     62.22567181	     10.68887950	     75.03527435	    121.75406227	     87.73673574	     52.61077149	      4.15750862	     65.17669013	    108.71449960	     73.45504953
      3.66666670	      3.62439514	     -7.86421019	     11.99711749	      0.39426427	      0.87084840	     -0.05735305	     42.23326131	     -0.85015754	     -9.39273816	     10.86912429	      0.18970201	     -8.89189706	     -4.85793663	     -7.49999982	     14.81372828	      2.63063507	      6.20372611	     28.28114425	      0.49359908	     11.15727458	    -19.05939136	     -7.49999982	    -17.41924864	      4.87545042	      3.38450375	     62.04367841	     10.32863405	     74.69534609	    121.30282544	     87.13069265	     51.96249559	      4.37983235	     63.91707529	    108.99828212	     72.73109596
      3.68333330	      3.70595296	     -8.04223525	     11.94287967	      0.39801827	      0.87633699	     -0.05371136	     41.42158974	     -0.25053868	     -9.11148008	     11.08837520	      0.19352866	     -8.77246197	     -5.65373670	     -7.49999983	     13.77484865	      2.05138105	      6.05831259	     26.86048493	      0.46880390	     10.18707818	    -18.91579872	     -7.49999983	    -16.82591126	      4.87501431	      3.37578033	     61.30604630	     10.50018833	     74.50268684	    120.50164285	     87.56933392	     51.70647779	      4.24570361	     63.32981455	    109.36712770	     72.72481349
      3.70000000	      3.44210504	     -8.54053897	     11.54735141	      0.39844132	      0.87908875	     -0.05383147	     41.05260609	      0.52501305	     -8.72037532	     11.84325784	      0.20670384	     -8.71592919	     -6.36889245	     -7.49999983	     13.25879392	      1.27144908	      5.73011097	     25.54474140	      0.44583984	      9.36090744	    -18.25651164	     -7.49999983	    -16.03958757	      5.15528773	      3.34684316	     60.74029558	     10.96676469	     74.87334845	    120.56134978	     87.84198100	     51.52999118	      3.85601151	     62.86214502	    109.14472587	     72.70638454
      3.71666670	      3.33131079	     -8.90566732	     11.28087764	      0.39736082	      0.88371985	     -0.05449070	     40.72314145	      1.11254006	     -8.16502135	     12.88121220	      0.22481956	     -8.79231782	     -7.00247494	     -7.49999983	     12.70734358	      0.71689862	      5.39771003	     24.20104232	      0.42238787	      8.86203135	    -17.54643576	     -7.49999983	    -15.40626365	      5.47942611	      3.26781404	     60.24622401	     11.32354835	     75.40856337	    120.73198234	     88.08377713	     51.26293781	      3.61152256	     62.74932600	    108.94021665	     72.69653849
      3.73333330	      3.02421604	     -8.95319268	     11.29455653	      0.39235451	      0.88257365	     -0.05743556	     41.11661267	      1.03128535	     -7.42825485	     13.98722011	      0.24412304	     -8.97328838	     -7.62063252	     -7.49999983	     13.15610056	      0.74271784	      4.82464536	     24.12898334	      0.42113020	      8.34578282	    -17.32891759	     -7.49999983	    -15.16709141	      5.81687929	      3.19327479	     60.59141166	     11.92218270	     75.08750176	    120.70772604	     88.38893233	     51.55071644	      3.69363566	     62.25742154	    108.76810861	     72.64501534
      3.75000000	      2.94595281	     -8.82889985	     11.40995264	      0.39783757	      0.88549861	     -0.06079794	     40.88610494	      0.72806073	     -6.92730430	     14.66205120	      0.25590107	     -8.88292621	     -7.69536856	     -7.49999983	     12.50150546	      0.91463598	      5.19178080	     23.11559351	      0.40344322	      7.97487634	    -16.45070719	     -7.49999983	    -14.61613272	      5.94317929	      2.76416510	     60.22004040	     12.21529422	     74.80158677	    121.08902517	     88.56515552	     51.11121735	      3.67484465	     62.01150008	    108.76901481	     72.58630239
      3.76666670	      2.60140865	     -8.72882578	     11.64249957	      0.39868577	      0.88623467	     -0.06036007	     40.78916205	      0.37354557	     -6.93550738	     14.96075293	      0.26111440	     -8.57819965	     -7.68324381	     -7.49999983	     12.53515555	      1.22756218	      5.06913549	     22.47637593	      0.39228676	      7.75203281	    -15.86986573	     -7.49999983	    -13.87859214	      6.12198289	      2.83537225	     60.05684230	     12.33335899	     74.60288484	    121.27944233	     88.12962638	     50.49830834	      3.73269468	     61.97179413	    108.92312164	     72.27281189
      3.78333330	      2.25118018	     -8.42513394	     12.00516717	      0.40307479	      0.88881439	     -0.05670238	     40.31341553	      0.08535257	     -6.74260532	     14.36957153	      0.25079634	     -8.53268015	     -7.47182659	     -7.49999983	     12.06423139	      1.47414837	      5.21770287	     21.42994133	      0.37402303	      7.33472844	    -15.25222056	     -7.49999983	    -13.01116162	      5.68659879	      2.91767268	     59.92524434	     12.33189172	     74.43226325	    121.36153877	     88.18570780	     49.70662927	      3.98102053	     62.35061895	    109.65326308	     72.28656772
